<?xml version="1.0" encoding="utf-8"?>
<!-- Generator: Adobe Illustrator 27.5.0, SVG Export Plug-In . SVG Version: 6.00 Build 0)  -->
<svg version="1.1" xmlns="http://www.w3.org/2000/svg" xmlns:xlink="http://www.w3.org/1999/xlink" x="0px" y="0px"
	 viewBox="0 0 750 500" style="enable-background:new 0 0 750 500;" xml:space="preserve">
<g id="BACKGROUND">
	<rect style="fill:#EFF1FF;" width="750" height="500"/>
</g>
<g id="OBJECTS">
	<g>
		<g>
			<g>
				<path style="fill:#D7E7F7;" d="M229.544,125.666H127.951c-3.754,0-6.798-3.043-6.798-6.798V78.509
					c0-3.754,3.043-6.798,6.798-6.798h101.593c3.754,0,6.798,3.044,6.798,6.798v40.359
					C236.342,122.623,233.298,125.666,229.544,125.666z"/>
				<g>
					<path style="fill:#FFFFFF;" d="M232.403,122.808H130.81c-3.754,0-6.798-3.043-6.798-6.798V75.651
						c0-3.754,3.043-6.798,6.798-6.798h101.593c3.754,0,6.798,3.044,6.798,6.798v40.359
						C239.201,119.764,236.157,122.808,232.403,122.808z"/>
				</g>
				<g style="opacity:0.52;">
					<rect x="140.527" y="90.544" style="fill:#D7E7F7;" width="82.159" height="3.381"/>
					<rect x="140.527" y="99.492" style="fill:#D7E7F7;" width="82.159" height="3.381"/>
					<rect x="140.527" y="108.44" style="fill:#D7E7F7;" width="82.159" height="3.381"/>
				</g>
				<g>
					<path style="fill:#90B2FA;" d="M239.201,80.18v-4.529c0-3.754-3.043-6.798-6.798-6.798H130.81
						c-3.754,0-6.798,3.044-6.798,6.798v4.529H239.201z"/>
				</g>
				<g>
					<circle style="fill:#FEFEFE;" cx="133.824" cy="74.516" r="2.951"/>
					<path style="fill:#FEFEFE;" d="M148.408,74.516c0,1.63-1.321,2.951-2.951,2.951c-1.63,0-2.951-1.321-2.951-2.951
						c0-1.63,1.321-2.951,2.951-2.951C147.086,71.565,148.408,72.886,148.408,74.516z"/>
					<path style="fill:#FEFEFE;" d="M160.04,74.516c0,1.63-1.321,2.951-2.951,2.951c-1.63,0-2.951-1.321-2.951-2.951
						c0-1.63,1.321-2.951,2.951-2.951C158.719,71.565,160.04,72.886,160.04,74.516z"/>
				</g>
			</g>
			<g>
				<path style="fill:#D7E7F7;" d="M647.388,71.643H428.032c-6.433,0-11.648,5.215-11.648,11.648v2.527v145.02
					c0,6.433,5.215,11.648,11.648,11.648h219.356c6.433,0,11.648-5.215,11.648-11.648V85.818v-2.527
					C659.036,76.858,653.821,71.643,647.388,71.643z"/>
				<g>
					<path style="fill:#FEFEFE;" d="M650.819,239.055H431.462c-6.433,0-11.648-5.215-11.648-11.648V79.86
						c0-6.433,5.215-11.648,11.648-11.648h219.356c6.433,0,11.648,5.215,11.648,11.648v147.547
						C662.467,233.84,657.252,239.055,650.819,239.055z"/>
					<g>
						<g>
							<path style="fill:#90B2FA;" d="M662.467,82.387V79.86c0-6.433-5.215-11.648-11.648-11.648H431.462
								c-6.433,0-11.648,5.215-11.648,11.648v2.527H662.467z"/>
						</g>
						<g>
							<path style="fill:#FEFEFE;" d="M437.361,75.3c0,1.579-1.28,2.859-2.859,2.859c-1.579,0-2.859-1.28-2.859-2.859
								c0-1.579,1.28-2.859,2.859-2.859C436.081,72.441,437.361,73.721,437.361,75.3z"/>
							<path style="fill:#FEFEFE;" d="M449.296,75.3c0,1.579-1.28,2.859-2.859,2.859c-1.579,0-2.859-1.28-2.859-2.859
								c0-1.579,1.28-2.859,2.859-2.859C448.016,72.441,449.296,73.721,449.296,75.3z"/>
							<path style="fill:#FEFEFE;" d="M461.232,75.3c0,1.579-1.28,2.859-2.859,2.859c-1.579,0-2.859-1.28-2.859-2.859
								c0-1.579,1.28-2.859,2.859-2.859C459.952,72.441,461.232,73.721,461.232,75.3z"/>
						</g>
					</g>
				</g>
				<g style="opacity:0.52;">
					<rect x="429.387" y="94.775" style="fill:#D7E7F7;" width="223.506" height="9.197"/>
					<rect x="429.387" y="119.119" style="fill:#D7E7F7;" width="223.506" height="9.196"/>
					<rect x="429.387" y="143.462" style="fill:#D7E7F7;" width="223.506" height="9.196"/>
					<rect x="429.387" y="167.805" style="fill:#D7E7F7;" width="223.506" height="9.196"/>
					<rect x="429.387" y="192.149" style="fill:#D7E7F7;" width="223.506" height="9.196"/>
					<rect x="429.387" y="216.492" style="fill:#D7E7F7;" width="223.506" height="9.196"/>
				</g>
			</g>
			<g>
				<path style="fill:#D7E7F7;" d="M269.271,186.755H103.494c-4.862,0-8.803,3.941-8.803,8.803v1.91v109.598
					c0,4.862,3.941,8.803,8.803,8.803h165.777c4.862,0,8.803-3.941,8.803-8.803V197.467v-1.91
					C278.074,190.696,274.133,186.755,269.271,186.755z"/>
				<g>
					<path style="fill:#FEFEFE;" d="M271.864,313.275H106.087c-4.862,0-8.803-3.941-8.803-8.803V192.965
						c0-4.862,3.941-8.803,8.803-8.803h165.777c4.862,0,8.803,3.941,8.803,8.803v111.507
						C280.667,309.334,276.725,313.275,271.864,313.275z"/>
					<g>
						<g>
							<path style="fill:#90B2FA;" d="M280.667,194.874v-1.91c0-4.862-3.941-8.803-8.803-8.803H106.087
								c-4.862,0-8.803,3.941-8.803,8.803v1.91H280.667z"/>
						</g>
						<g>
							<path style="fill:#FEFEFE;" d="M110.544,189.518c0,1.193-0.967,2.161-2.16,2.161c-1.193,0-2.161-0.967-2.161-2.161
								c0-1.193,0.967-2.16,2.161-2.16C109.577,187.358,110.544,188.325,110.544,189.518z"/>
							<path style="fill:#FEFEFE;" d="M119.565,189.518c0,1.193-0.967,2.161-2.161,2.161c-1.193,0-2.161-0.967-2.161-2.161
								c0-1.193,0.967-2.16,2.161-2.16C118.597,187.358,119.565,188.325,119.565,189.518z"/>
							<path style="fill:#FEFEFE;" d="M128.585,189.518c0,1.193-0.967,2.161-2.161,2.161c-1.193,0-2.16-0.967-2.16-2.161
								c0-1.193,0.967-2.16,2.16-2.16C127.617,187.358,128.585,188.325,128.585,189.518z"/>
						</g>
					</g>
				</g>
				<g style="opacity:0.52;">
					<rect x="104.519" y="204.237" style="fill:#D7E7F7;" width="168.913" height="6.95"/>
					<rect x="104.519" y="222.634" style="fill:#D7E7F7;" width="168.913" height="6.95"/>
					<rect x="104.519" y="241.032" style="fill:#D7E7F7;" width="168.913" height="6.95"/>
					<rect x="104.519" y="259.429" style="fill:#D7E7F7;" width="168.913" height="6.95"/>
					<rect x="104.519" y="277.826" style="fill:#D7E7F7;" width="168.913" height="6.95"/>
					<rect x="104.519" y="296.224" style="fill:#D7E7F7;" width="168.913" height="6.95"/>
				</g>
			</g>
		</g>
		<g>
			<g>
				<g>
					<path style="fill:#9EEBFF;" d="M264.367,407.149c4.309-15.619,11.882-30.99,6-47.142c-1.732-4.755-3.942-12.908-9.016-15.307
						c-5.795-2.74-11.215,4.535-14.13,8.48c-1.786,2.418-2.477,5.312-2.63,8.121c-10.915-33.989-20.578-55.336-37.382-61.137
						c-19.978-6.896-17.899,17.627-14.47,35.54c-15.239-28.497-74.323-38.848-81.852-23.014
						c-7.124,14.983,26.899,22.601,58.119,56.569c-56.09-18.514-73.033,17.404-16.851,27.703
						c11.012,3.928,22.37,4.142,49.329,19.686c-26.131-5.573-45.343,22.983-9.345,22.794c5.21-0.027,28.005,0.817,30.302,3.493
						c5.413,6.303,12.886,6.734,20.205,3.723c5.057-2.081,10.15-4.487,14.672-7.592c6.805-4.673,3.965-13.722,4.74-20.612
						C262.486,414.663,263.333,410.899,264.367,407.149z"/>
					<g>
						<g>
							<path style="fill:#7BB7C7;" d="M124.598,315.459c1.975,0.205,3.725,0.652,5.528,1.137c1.759,0.557,3.54,1.064,5.231,1.784
								l2.568,1.006c0.857,0.334,1.667,0.765,2.502,1.144l2.488,1.173l1.244,0.587l1.203,0.662l4.806,2.656
								c1.603,0.884,3.101,1.935,4.657,2.894c1.529,0.999,3.113,1.922,4.597,2.985l4.441,3.206l2.221,1.603
								c0.744,0.53,1.485,1.063,2.182,1.652l4.254,3.443l4.254,3.444l4.073,3.649l4.066,3.657c1.359,1.215,2.723,2.426,3.992,3.734
								l7.763,7.697l1.941,1.925l1.851,2.009l3.701,4.019c2.449,2.695,4.975,5.324,7.361,8.073l7.052,8.341
								c2.324,2.801,4.77,5.507,6.955,8.419l6.715,8.61l3.357,4.305l1.678,2.154l1.598,2.212l12.785,17.698
								c0.422,0.583,0.29,1.398-0.293,1.82c-0.583,0.422-1.398,0.29-1.82-0.293l-0.003-0.005l-0.026-0.036L236.86,415.13
								l-1.582-2.211l-1.661-2.152l-3.324-4.302l-6.648-8.604c-2.164-2.911-4.583-5.612-6.884-8.41l-6.98-8.333
								c-2.362-2.746-4.861-5.37-7.284-8.061l-3.662-4.013l-1.832-2.006l-1.919-1.92l-7.678-7.682
								c-1.256-1.306-2.603-2.513-3.947-3.725l-4.019-3.647l-4.026-3.64l-4.2-3.431l-4.2-3.432
								c-0.688-0.588-1.419-1.118-2.152-1.646l-2.19-1.595l-4.379-3.192c-1.463-1.059-3.021-1.973-4.526-2.967
								c-1.53-0.953-3.007-2.001-4.581-2.877l-4.718-2.636l-1.181-0.657l-1.217-0.58l-2.435-1.161
								c-0.817-0.374-1.612-0.803-2.446-1.132l-2.5-0.992c-1.652-0.713-3.368-1.206-5.068-1.755
								c-1.696-0.472-3.482-0.912-5.122-1.094l-0.095-0.011c-0.499-0.055-0.859-0.505-0.804-1.004
								C123.655,315.766,124.101,315.407,124.598,315.459z"/>
						</g>
						
							<path style="fill:none;stroke:#7BB7C7;stroke-width:1.8224;stroke-linecap:round;stroke-linejoin:round;stroke-miterlimit:10;" d="
							M212.576,330.677c0,0-4.419,26.617,7.771,61.111"/>
						
							<path style="fill:none;stroke:#7BB7C7;stroke-width:1.8224;stroke-linecap:round;stroke-linejoin:round;stroke-miterlimit:10;" d="
							M134.221,376.015c0,0,42.292-5.636,96.203,28.445"/>
						
							<path style="fill:none;stroke:#7BB7C7;stroke-width:1.8224;stroke-linecap:round;stroke-linejoin:round;stroke-miterlimit:10;" d="
							M188.731,430.187c0,0,22.759-10.661,56.86-3.665"/>
						
							<path style="fill:none;stroke:#7BB7C7;stroke-width:1.8224;stroke-linecap:round;stroke-linejoin:round;stroke-miterlimit:10;" d="
							M256.191,361.921c0,0-11.751,24.292-7.017,67.245"/>
					</g>
				</g>
				<g>
					<path style="fill:#9EEBFF;" d="M532.448,402.409c-3.248-15.873-9.77-31.719-2.815-47.439
						c2.048-4.628,4.802-12.613,10.025-14.666c5.966-2.344,10.885,5.28,13.528,9.412c1.62,2.533,2.114,5.467,2.078,8.279
						c13.176-33.178,24.254-53.827,41.409-58.484c20.397-5.537,16.672,18.791,12.046,36.433
						c17.121-27.407,76.768-33.761,83.215-17.456c6.1,15.428-28.358,20.741-61.793,52.531
						c57.208-14.699,71.697,22.277,14.949,28.774c-11.251,3.178-22.597,2.628-50.542,16.324c26.446-3.803,43.694,25.981,7.79,23.371
						c-5.197-0.378-27.996-1.069-30.469,1.447c-5.825,5.924-13.31,5.853-20.41,2.356c-4.906-2.416-9.825-5.159-14.128-8.562
						c-6.475-5.12-3.033-13.958-3.343-20.884C533.819,410.032,533.228,406.219,532.448,402.409z"/>
					<g>
						<g>
							<path style="fill:#7BB7C7;" d="M678.045,322.149c-1.648,0.071-3.46,0.39-5.184,0.747c-1.733,0.434-3.478,0.81-5.174,1.41
								l-2.561,0.821c-0.854,0.272-1.677,0.647-2.516,0.965l-2.507,0.994l-1.254,0.497l-1.222,0.576l-4.885,2.312
								c-1.629,0.768-3.174,1.714-4.765,2.562c-1.569,0.891-3.184,1.698-4.715,2.656l-4.584,2.89l-2.292,1.444
								c-0.767,0.477-1.532,0.957-2.258,1.497l-4.421,3.141l-4.421,3.141l-4.261,3.361l-4.255,3.369
								c-1.422,1.118-2.848,2.232-4.188,3.451l-8.177,7.148l-2.044,1.787l-1.962,1.878l-3.924,3.758
								c-2.599,2.522-5.269,4.972-7.81,7.553l-7.525,7.844c-2.484,2.638-5.08,5.169-7.435,7.928l-7.212,8.138l-3.606,4.068
								l-1.802,2.035l-1.727,2.1l-13.82,16.798l-0.029,0.035c-0.457,0.556-1.279,0.636-1.835,0.178
								c-0.556-0.457-0.636-1.279-0.178-1.835l0.004-0.005l13.946-16.798l1.743-2.099l1.819-2.036l3.639-4.07l7.279-8.139
								c2.376-2.758,4.998-5.294,7.505-7.932l7.597-7.848c2.566-2.582,5.263-5.036,7.888-7.56l3.963-3.761l1.982-1.88l2.066-1.79
								l8.263-7.157c1.354-1.22,2.796-2.336,4.234-3.457l4.303-3.376l4.309-3.366l4.476-3.15l4.475-3.149
								c0.735-0.541,1.51-1.023,2.288-1.502l2.323-1.45l4.647-2.9c1.552-0.961,3.195-1.775,4.788-2.669
								c1.617-0.853,3.182-1.801,4.841-2.575l4.974-2.327l1.244-0.579l1.281-0.502l2.562-1.003c0.859-0.321,1.696-0.697,2.573-0.973
								l2.63-0.831c1.736-0.604,3.547-0.99,5.339-1.428c1.831-0.363,3.608-0.691,5.592-0.763c0.502-0.018,0.924,0.374,0.942,0.876
								c0.018,0.5-0.371,0.92-0.87,0.942L678.045,322.149z"/>
						</g>
						
							<path style="fill:none;stroke:#7BB7C7;stroke-width:1.8224;stroke-linecap:round;stroke-linejoin:round;stroke-miterlimit:10;" d="
							M589.266,329.593c0,0,2.619,26.854-11.864,60.45"/>
						
							<path style="fill:none;stroke:#7BB7C7;stroke-width:1.8224;stroke-linecap:round;stroke-linejoin:round;stroke-miterlimit:10;" d="
							M664.394,380.099c0,0-41.817-8.467-97.898,21.91"/>
						
							<path style="fill:none;stroke:#7BB7C7;stroke-width:1.8224;stroke-linecap:round;stroke-linejoin:round;stroke-miterlimit:10;" d="
							M606.363,430.482c0,0-21.99-12.168-56.484-7.482"/>
						
							<path style="fill:none;stroke:#7BB7C7;stroke-width:1.8224;stroke-linecap:round;stroke-linejoin:round;stroke-miterlimit:10;" d="
							M543.648,357.833c0,0,10.091,25.028,2.478,67.564"/>
					</g>
				</g>
			</g>
			<g>
				<ellipse style="fill:#CCD3FF;" cx="400.478" cy="438.197" rx="194.807" ry="21.417"/>
				<ellipse style="fill:#CCD3FF;" cx="180.737" cy="438.197" rx="86.292" ry="11.356"/>
				<ellipse style="fill:#CCD3FF;" cx="589.278" cy="438.197" rx="78.947" ry="11.356"/>
			</g>
			<g>
				<g>
					<path style="fill:#FFCF00;" d="M635.708,361.058l-74.897-47.222c-2.913-1.837-3.786-5.688-1.949-8.601l28.823-45.714
						c1.837-2.913,5.688-3.786,8.601-1.949l74.897,47.222c2.913,1.837,3.786,5.688,1.949,8.601l-28.823,45.714
						C642.472,362.022,638.621,362.895,635.708,361.058z"/>
					<g>
						<g>
							<path style="fill:#E55973;" d="M652.155,308.339c-2.431,3.856-7.528,5.011-11.384,2.58c-3.856-2.431-5.011-7.528-2.58-11.384
								c2.431-3.856,7.528-5.011,11.384-2.58C653.431,299.386,654.586,304.483,652.155,308.339z"/>
						</g>
						<g>
							<g>
								<path style="fill:#E55973;" d="M652.163,300.084c1.505,0,3.027,0.411,4.394,1.273c3.856,2.431,5.011,7.528,2.58,11.384
									c-1.569,2.489-4.25,3.853-6.99,3.853c-1.505,0-3.027-0.411-4.394-1.273c-3.856-2.431-5.011-7.528-2.58-11.384
									C646.742,301.448,649.423,300.084,652.163,300.084 M652.163,299.448L652.163,299.448c-3.076,0-5.89,1.551-7.528,4.15
									c-1.266,2.009-1.675,4.39-1.15,6.706c0.525,2.316,1.92,4.289,3.928,5.555c1.422,0.897,3.059,1.371,4.733,1.371
									c3.075,0,5.889-1.551,7.527-4.149c1.266-2.009,1.675-4.39,1.15-6.706c-0.525-2.316-1.92-4.289-3.929-5.555
									C655.474,299.922,653.837,299.448,652.163,299.448L652.163,299.448z"/>
							</g>
						</g>
						<g>
							<g>
								<path style="fill:#F58499;" d="M652.155,308.339c1.524-2.417,1.632-5.318,0.555-7.748c-2.766-0.194-5.549,1.099-7.129,3.603
									c-1.579,2.505-1.545,5.574-0.178,7.986C648.06,312.104,650.631,310.756,652.155,308.339z"/>
							</g>
						</g>
					</g>
					<g>
						<g>
							<path style="fill:#FFFFFF;" d="M591.051,299.758l-13.972-8.81c-1.162-0.733-1.51-2.269-0.777-3.431l5.325-8.445
								c0.733-1.162,2.269-1.51,3.431-0.777l13.972,8.81c1.162,0.733,1.51,2.269,0.777,3.431l-5.325,8.445
								C593.749,300.143,592.213,300.491,591.051,299.758z"/>
							<g>
								<g>
									
										<line style="fill:none;stroke:#FFCF00;stroke-width:0.5224;stroke-miterlimit:10;" x1="580.379" y1="281.051" x2="598.56" y2="292.513"/>
									
										<line style="fill:none;stroke:#FFCF00;stroke-width:0.5224;stroke-miterlimit:10;" x1="577.549" y1="285.54" x2="595.729" y2="297.003"/>
								</g>
								<g>
									
										<line style="fill:none;stroke:#FFCF00;stroke-width:0.5224;stroke-miterlimit:10;" x1="583.068" y1="289.02" x2="585.899" y2="284.531"/>
									
										<line style="fill:none;stroke:#FFCF00;stroke-width:0.5224;stroke-miterlimit:10;" x1="590.209" y1="293.523" x2="593.04" y2="289.033"/>
								</g>
							</g>
						</g>
						<g>
							<path style="fill:#FEFFFD;" d="M584.783,308.807l-14.661-9.244c-0.559-0.352-0.726-1.091-0.374-1.65l1.619-2.569
								c0.352-0.559,1.091-0.726,1.65-0.374l14.661,9.244c0.559,0.352,0.726,1.091,0.374,1.65l-1.62,2.569
								C586.08,308.992,585.341,309.159,584.783,308.807z"/>
							<path style="fill:#FEFFFD;" d="M604.712,321.373l-14.661-9.244c-0.559-0.352-0.726-1.091-0.374-1.65l1.62-2.569
								c0.352-0.559,1.091-0.726,1.649-0.374l14.661,9.244c0.559,0.352,0.726,1.091,0.374,1.65l-1.62,2.569
								C606.01,321.558,605.271,321.725,604.712,321.373z"/>
							<path style="fill:#FEFFFD;" d="M624.643,333.939l-14.661-9.244c-0.559-0.352-0.726-1.091-0.374-1.649l1.62-2.569
								c0.352-0.559,1.091-0.726,1.649-0.374l14.661,9.244c0.559,0.352,0.726,1.091,0.374,1.65l-1.62,2.569
								C625.94,334.124,625.201,334.291,624.643,333.939z"/>
							<path style="fill:#FEFFFD;" d="M644.573,346.505l-14.661-9.244c-0.559-0.352-0.726-1.091-0.374-1.65l1.62-2.569
								c0.352-0.559,1.091-0.726,1.649-0.374l14.661,9.244c0.559,0.352,0.726,1.091,0.374,1.65l-1.62,2.569
								C645.87,346.69,645.131,346.857,644.573,346.505z"/>
						</g>
					</g>
					<path style="fill:#BE9E00;" d="M637.839,357.052l-45.797-28.875c-0.592-0.373-0.769-1.155-0.396-1.747l1.569-2.488
						c0.373-0.592,1.155-0.769,1.747-0.396l45.797,28.875c0.592,0.373,0.769,1.155,0.396,1.747l-1.569,2.488
						C639.213,357.248,638.431,357.425,637.839,357.052z"/>
					<g>
						<path style="fill:#BE9E00;" d="M631.344,343.969l-4.281-2.699c-0.292-0.184-0.379-0.57-0.195-0.862l0.886-1.406
							c0.184-0.292,0.57-0.379,0.862-0.195l4.281,2.699c0.292,0.184,0.379,0.57,0.195,0.862l-0.886,1.406
							C632.022,344.066,631.636,344.153,631.344,343.969z"/>
						<path style="fill:#BE9E00;" d="M642.235,350.836l-4.281-2.699c-0.292-0.184-0.379-0.57-0.195-0.862l0.887-1.406
							c0.184-0.292,0.57-0.379,0.862-0.195l4.281,2.699c0.292,0.184,0.379,0.57,0.195,0.862l-0.886,1.406
							C642.913,350.932,642.527,351.02,642.235,350.836z"/>
					</g>
				</g>
				<g>
					<path style="fill:#4F77B3;" d="M459.629,416.686c-8.943,0-16.192-7.25-16.192-16.192c0-8.943,7.25-16.192,16.192-16.192
						c0.376,0,0.743,0.031,1.113,0.056v-0.15H341.663v0.15c0.369-0.025,0.737-0.056,1.113-0.056c8.943,0,16.192,7.249,16.192,16.192
						c0,8.943-7.249,16.192-16.192,16.192c-0.376,0-0.744-0.031-1.113-0.056v0.15h119.079v-0.15
						C460.373,416.655,460.005,416.686,459.629,416.686z"/>
					<g>
						<path style="fill:#FFFFFF;" d="M250.8,389.041c-22.081,0-40.046-17.965-40.046-40.047V158.727
							c0-22.082,17.965-40.047,40.047-40.047h300.804c22.082,0,40.047,17.965,40.047,40.047v190.267
							c0,22.082-17.965,40.048-40.047,40.048H250.8z"/>
						<path style="fill:#6D93E5;" d="M551.604,123.512c19.448,0,35.214,15.766,35.214,35.214v190.267
							c0,19.448-15.766,35.214-35.214,35.214H250.8c-19.448,0-35.214-15.766-35.214-35.214V158.727
							c0-19.448,15.766-35.214,35.214-35.214H551.604 M551.604,113.847H250.801c-24.747,0-44.88,20.133-44.88,44.88v190.267
							c0,24.747,20.133,44.879,44.879,44.879h300.804c24.747,0,44.88-20.133,44.88-44.879V158.727
							C596.484,133.98,576.351,113.847,551.604,113.847L551.604,113.847z"/>
					</g>
					<path style="fill:#476196;" d="M551.604,384.208H250.8c-19.448,0-35.214-15.766-35.214-35.214V158.727
						c0-19.448,15.766-35.214,35.214-35.214h300.804c19.448,0,35.214,15.766,35.214,35.214v190.267
						C586.819,368.442,571.053,384.208,551.604,384.208z"/>
					<path style="fill:#FFFFFF;" d="M575.677,320.41V158.727c0-13.274-10.799-24.073-24.072-24.073H250.801
						c-13.274,0-24.073,10.799-24.073,24.073V320.41H575.677z"/>
					<path style="fill:#6D93E5;" d="M215.586,331.965v17.028c0,19.448,15.766,35.214,35.214,35.214h300.804
						c19.448,0,35.214-15.766,35.214-35.214v-17.028H215.586z"/>
					<g>
						<path style="fill:#6D93E5;" d="M477.983,434.085h-153.56c-4.779,0-8.653-3.874-8.653-8.653l0,0
							c0-4.779,3.874-8.653,8.653-8.653h153.56c4.779,0,8.653,3.874,8.653,8.653l0,0
							C486.635,430.211,482.761,434.085,477.983,434.085z"/>
					</g>
				</g>
				<g>
					<g>
						<g>
							<path style="fill:#BE9E00;" d="M498.716,306.502H303.689c-4.34,0-7.858-3.518-7.858-7.858V172.538
								c0-4.34,3.518-7.858,7.858-7.858h195.026c4.34,0,7.858,3.518,7.858,7.858v126.105
								C506.574,302.984,503.055,306.502,498.716,306.502z"/>
							<path style="fill:#BE9E00;" d="M406.931,168.609l-15.346-18.403c-1.577-1.644-3.055-1.644-4.739-1.644h-82.368
								c-4.775,0-8.646,4.499-8.646,10.05v41.811h111.1V168.609z"/>
							<rect x="309.607" y="172.691" style="fill:#FEFFFD;" width="186.795" height="105.922"/>
							
								<rect x="269.142" y="112.31" transform="matrix(0.4686 -0.8834 0.8834 0.4686 37.7753 301.888)" style="fill:#5B688C;" width="1.372" height="14.468"/>
							<g>
								
									<rect x="277.937" y="107.049" transform="matrix(0.2824 -0.9593 0.9593 0.2824 56.358 476.1831)" style="fill:#FFF8D9;" width="137.024" height="186.749"/>
								<g>
									<path style="fill:#5B688C;" d="M284.436,121.905l-1.212-0.643c1.051-1.981,1.282-3.898,0.687-5.697
										c-1.228-3.713-5.566-5.815-5.61-5.836l0.588-1.239c0.2,0.094,4.905,2.364,6.323,6.637
										C285.932,117.297,285.671,119.578,284.436,121.905z"/>
									<polygon style="fill:#5B688C;" points="279.353,108.729 277.416,107.702 278.611,111.596 279.902,109.161 									"/>
								</g>
								
									<rect x="223.131" y="176.778" transform="matrix(0.2824 -0.9593 0.9593 0.2824 25.7343 393.8318)" style="fill:#D4B498;" width="105.929" height="5.875"/>
								
									<rect x="235.269" y="180.351" transform="matrix(0.2824 -0.9593 0.9593 0.2824 31.018 408.0396)" style="fill:#D4B498;" width="105.929" height="5.875"/>
								
									<rect x="260.149" y="200.957" transform="matrix(0.2824 -0.9593 0.9593 0.2824 16.3626 429.6617)" style="fill:#D4B498;" width="70.417" height="5.875"/>
								
									<rect x="259.544" y="187.496" transform="matrix(0.2824 -0.9593 0.9593 0.2824 41.5853 436.4558)" style="fill:#D4B498;" width="105.929" height="5.875"/>
								
									<rect x="271.682" y="191.069" transform="matrix(0.2824 -0.9593 0.9593 0.2824 46.868 450.663)" style="fill:#D4B498;" width="105.929" height="5.875"/>
								
									<rect x="297.209" y="212.539" transform="matrix(0.2824 -0.9593 0.9593 0.2824 31.2008 472.6613)" style="fill:#D4B498;" width="68.615" height="5.875"/>
								
									<rect x="295.958" y="198.214" transform="matrix(0.2824 -0.9593 0.9593 0.2824 57.4344 479.0782)" style="fill:#D4B498;" width="105.929" height="5.875"/>
								
									<rect x="321.485" y="219.685" transform="matrix(0.2824 -0.9593 0.9593 0.2824 41.7675 501.0768)" style="fill:#D4B498;" width="68.615" height="5.875"/>
								
									<rect x="320.233" y="205.359" transform="matrix(0.2824 -0.9593 0.9593 0.2824 68.001 507.4936)" style="fill:#D4B498;" width="105.929" height="5.875"/>
								
									<rect x="332.371" y="208.932" transform="matrix(0.2824 -0.9593 0.9593 0.2824 73.2851 521.7021)" style="fill:#D4B498;" width="105.929" height="5.875"/>
								
									<rect x="356.663" y="228.752" transform="matrix(0.2824 -0.9593 0.9593 0.2824 59.5493 542.9807)" style="fill:#D4B498;" width="72.057" height="5.875"/>
								
									<rect x="356.647" y="216.077" transform="matrix(0.2824 -0.9593 0.9593 0.2824 83.8509 550.1168)" style="fill:#D4B498;" width="105.929" height="5.875"/>
								
									<rect x="380.939" y="235.897" transform="matrix(0.2824 -0.9593 0.9593 0.2824 70.116 571.3962)" style="fill:#D4B498;" width="72.056" height="5.875"/>
							</g>
						</g>
						<g>
							<path style="fill:#D1CBB2;" d="M499.544,300.502H302.861c-3.882,0-7.03-3.147-7.03-7.03v-96.287
								c0-3.882,3.147-7.03,7.03-7.03h196.684c3.882,0,7.03,3.147,7.03,7.03v96.287
								C506.574,297.355,503.426,300.502,499.544,300.502z"/>
							<path style="fill:#D1CBB2;" d="M406.931,190.156l-15.346-14.727c-1.577-1.316-3.055-1.316-4.739-1.316h-82.368
								c-4.775,0-8.646,3.601-8.646,8.042v33.459h111.1V190.156z"/>
						</g>
						<g>
							<path style="fill:#FFCF00;" d="M499.544,306.502H302.861c-3.882,0-7.03-3.147-7.03-7.03v-96.287
								c0-3.882,3.147-7.03,7.03-7.03h196.684c3.882,0,7.03,3.147,7.03,7.03v96.287
								C506.574,303.355,503.426,306.502,499.544,306.502z"/>
							<path style="fill:#FFCF00;" d="M406.931,196.156l-15.346-14.727c-1.577-1.316-3.055-1.316-4.739-1.316h-82.368
								c-4.775,0-8.646,3.601-8.646,8.042v33.459h111.1V196.156z"/>
						</g>
					</g>
					<g>
						<g>
							<path style="fill:#E55973;" d="M426.675,234.133l-7.913-0.228h-35.12l-7.762,0.047c-5.997,1.117-10.691,6.55-10.691,12.871
								v35.839c0,7.134,5.783,12.918,12.917,12.918h46.191c7.134,0,12.917-5.783,12.917-12.918v-35.839
								C437.215,240.502,432.672,235.25,426.675,234.133z"/>
						</g>
						<path style="opacity:0.45;fill:#240C00;" d="M407.214,260.66c0-3.32-2.691-6.012-6.011-6.012c-3.32,0-6.012,2.691-6.012,6.012
							c0,1.763,0.764,3.343,1.972,4.443l-1.444,10.468h10.966l-1.444-10.468C406.45,264.003,407.214,262.422,407.214,260.66z"/>
						<g>
							<path style="fill:#E55973;" d="M405.198,202.01h-7.991c-7.962,0-14.921,4.359-18.63,10.812
								c2.445,1.055,4.891,2.108,7.336,3.163c2.433-3.651,6.586-6.062,11.294-6.062h7.991c7.48,0,13.565,6.085,13.565,13.564v10.419
								h7.913v-10.419C426.675,211.644,417.04,202.01,405.198,202.01z"/>
						</g>
					</g>
				</g>
				<g>
					<g>
						<g>
							<g>
								<path style="fill:#C79585;" d="M186.81,258.025c6.029-3.235,13.32-12.131,18.232-28.652
									c3.326-8.989,0.26-20.885-6.253-42.19c-1.216-3.306-4.891-2.804-4.098,0.623c8.157,35.26-2.389,48.901-11.602,56.815
									c-1.5,1.365-2.639,2.602-3.546,3.741C181.768,251.735,184.173,254.977,186.81,258.025z"/>
								<g>
									<path style="fill:#C78E7B;" d="M189.317,181.588c0.099,1.213,0.468,1.881,0.68,2.507c0.255,0.754,2.882,3.605,4.034,3.914
										c1.924,0.516,4.67-0.005,5.645-1.937c0.457-0.906,0.426-1.996,0.134-2.967c-0.433-1.444-1.361-2.711-2.028-4.053
										c-0.123-0.248-0.386-0.393-0.661-0.364l-7.116,0.733C189.597,180.348,189.46,180.601,189.317,181.588z"/>
								</g>
							</g>
							<path style="fill:#172129;" d="M181.217,259.94c3.054,1.484,6.848,1.319,9.291-1.039
								c5.914-5.708,15.963-17.749,17.476-34.762c2.165-24.34-5.108-40.09-8.309-38.069c-3.2,2.021-7.024,3.454-6.239,6.077
								c0.785,2.623,5.026,16.16,0.402,28.688c-4.624,12.528-17.132,19.537-19.408,26.677
								C173.113,251.641,175.436,257.131,181.217,259.94z"/>
						</g>
						<g>
							<path style="fill:#476196;" d="M110.341,381.829c-0.195,1.196-2.57,0.838-2.553,3.076c0.068,0.56,0.176,1.499,0.22,2.156
								c0.143,2.159,0.549,4.385-0.473,4.652c-1.176,0.307-2.806-1.108-3.885-3.209c-1.477-2.875-2.139-6.946-1.19-8.831
								c0.425-0.844,2.864-1.856,3.683-2.143c3.032-1.065,3.301-0.154,3.301-0.154L110.341,381.829z"/>
							<path style="fill:#476196;" d="M203.61,425.641c0.906,0.804-0.667,2.62,1.234,3.802c0.51,0.242,1.361,0.653,1.939,0.968
								c1.901,1.034,3.999,1.881,3.677,2.888c-0.37,1.158-2.437,1.779-4.79,1.567c-3.219-0.29-7.013-1.908-8.098-3.717
								c-0.486-0.81-0.036-3.412,0.158-4.258c0.722-3.131,1.635-2.872,1.635-2.872L203.61,425.641z"/>
							<g>
								<path style="fill:#172129;" d="M206.986,321.575c-1.436-11.011-3.632-24.155-12.578-31.87
									c-2.904-0.964-3.222-2.109-6.718-2.934c-1.852-0.438-4.566-0.787-7.327-1.12c1.109,8.217,1.346,16.571,1.535,24.858
									c0.155,6.801,0.186,13.622,1.259,20.353c0.862,5.404,1.891,10.763,2.459,16.198c1.937,10.307,4.056,17.818,6.978,28.796
									c1.504,5.651,0.422,19.661,0.849,24.263c0.722,7.773,2.221,21.252,2.699,25c0.554,4.341,9.268,4.579,9.549,0.246
									c1.051-16.196,2.043-29.859,3.407-49.156C210.122,361.743,209.164,338.279,206.986,321.575z"/>
							</g>
							<g>
								<path style="fill:#243340;" d="M179.862,285.59c-2.287-0.275-4.573-0.541-6.397-0.841
									c-7.034,2.565-11.388,9.44-13.171,15.889c-3.926,14.194-4.958,19.773-1.167,41.441c1.766,10.095,2.459,14.39-1.283,16.008
									c-10.439,4.229-15.233,4.69-26.407,8.971c-5.985,2.293-15.276,5.461-22.393,8.177c-1.574,0.601-2.718,2.037-2.84,3.718
									c-0.055,0.763-0.021,1.524,0.117,2.276c0.062,0.337,0.17,0.658,0.313,0.961c0.792,1.685,2.7,2.556,4.545,2.299
									c21.976-3.058,24.86-0.552,53.835-7.492c14.508-3.475,21.622-10.454,19.955-33.525
									C194.056,322.627,194.936,286.488,179.862,285.59z"/>
							</g>
						</g>
						<g>
							<path style="fill:#FFFFFF;" d="M200.653,278.648c-0.558-6.156,0.321-22.828-1.457-28.598c-0.728-2.364-1.23-3.96-3.466-8.099
								c-1.275-2.36-2.554-4.439-3.781-6.145c-0.575-0.783-1.613-2.064-2.098-2.604c-2.797-2.568-6.517-3.462-10.615-2.465
								c-2.74,0.667-5.194,2.196-7.217,4.161c-6.858,6.66-5.908,14.018-10.307,44.756c-0.986,6.89-1.678,11.084-2.586,20.467
								c0,0,26.953,9.788,43.062,0.486C202.154,300.309,201.73,290.532,200.653,278.648z"/>
							<g>
								<defs>
									<path id="SVGID_1_" d="M200.653,278.648c-0.558-6.156,0.321-22.828-1.457-28.598c-0.728-2.364-1.23-3.96-3.466-8.099
										c-1.275-2.36-2.554-4.439-3.781-6.145c-0.575-0.783-1.613-2.064-2.098-2.604c-2.797-2.568-6.517-3.462-10.615-2.465
										c-2.74,0.667-5.194,2.196-7.217,4.161c-6.858,6.66-5.908,14.018-10.307,44.756c-0.986,6.89-1.678,11.084-2.586,20.467
										c0,0,26.953,9.788,43.062,0.486C202.154,300.309,201.73,290.532,200.653,278.648z"/>
								</defs>
								<clipPath id="SVGID_00000171700677789238107750000005948670856207663516_">
									<use xlink:href="#SVGID_1_"  style="overflow:visible;"/>
								</clipPath>
								<g style="clip-path:url(#SVGID_00000171700677789238107750000005948670856207663516_);">
									
										<path style="fill:none;stroke:#243340;stroke-width:10;stroke-linecap:round;stroke-linejoin:round;stroke-miterlimit:10;" d="
										M213.573,252.64c-9.714,2.413-20.881,3.578-32.714,3.13c-10.101-0.382-19.629-1.899-28.113-4.288"/>
									
										<path style="fill:none;stroke:#243340;stroke-width:10;stroke-linecap:round;stroke-linejoin:round;stroke-miterlimit:10;" d="
										M213.987,269.56c-10.405,2.967-22.698,4.451-35.809,3.955c-8.997-0.34-17.54-1.581-25.296-3.537"/>
									
										<path style="fill:none;stroke:#243340;stroke-width:10;stroke-linecap:round;stroke-linejoin:round;stroke-miterlimit:10;" d="
										M213.987,233.736c-10.405,2.967-22.698,4.451-35.809,3.955c-8.997-0.34-17.54-1.581-25.296-3.537"/>
									
										<path style="fill:none;stroke:#243340;stroke-width:10;stroke-linecap:round;stroke-linejoin:round;stroke-miterlimit:10;" d="
										M213.038,286.792c-10.761,3.308-23.695,4.992-37.541,4.468c-10.357-0.392-20.112-1.977-28.756-4.472"/>
								</g>
							</g>
						</g>
						<g>
							<g>
								<path style="fill:#243340;" d="M264.318,227.288c-1.373-1.64-2.958-3.339-4.543-4.934c-1.594-1.612-3.249-3.173-4.931-4.705
									c-3.379-3.052-6.926-5.919-10.554-8.683c-7.307-5.461-15.075-10.321-23.205-14.487
									c-16.261-8.347-33.966-13.818-52.097-16.405c-1.127-0.207-2.268-0.312-3.407-0.435l-3.416-0.37l-3.418-0.367l-3.433-0.19
									c-2.289-0.102-4.577-0.311-6.87-0.325l-6.883-0.017l-1.721-0.005l-1.719,0.085l-3.439,0.174
									c-2.291,0.147-4.594,0.153-6.874,0.449l-6.857,0.711l-1.715,0.178l-1.703,0.268l-3.407,0.535
									c-18.176,2.851-36.01,7.94-53.186,14.703l-0.013,0.005c-0.257,0.101-0.547-0.025-0.648-0.282
									c-0.101-0.257,0.025-0.547,0.282-0.648l0,0c4.309-1.693,8.604-3.437,12.933-5.092l6.581-2.247l3.292-1.124l1.647-0.56
									l1.672-0.48l6.694-1.908l3.351-0.946l3.393-0.779l6.79-1.559c2.266-0.512,4.569-0.835,6.853-1.262l3.434-0.604l1.717-0.302
									l1.731-0.212l6.925-0.847c2.304-0.34,4.635-0.391,6.954-0.583l3.483-0.24l1.742-0.118l1.746-0.028l6.987-0.11
									c2.33-0.027,4.657,0.14,6.987,0.202l3.495,0.13l3.484,0.309l3.485,0.313c1.162,0.105,2.326,0.191,3.478,0.38
									c18.527,2.308,36.682,7.776,53.436,16.111c8.375,4.173,16.395,9.063,23.964,14.589c3.752,2.807,7.403,5.753,10.904,8.883
									c1.743,1.574,3.459,3.179,5.122,4.848c1.677,1.68,3.263,3.351,4.865,5.251c0.774,0.918,0.657,2.29-0.261,3.064
									c-0.918,0.774-2.29,0.657-3.064-0.261l-0.005-0.006L264.318,227.288z"/>
							</g>
							<path style="fill:#243340;" d="M169.386,175.381l-0.294-0.034c-0.749-0.088-1.285-0.766-1.198-1.515l0.56-4.776
								c0.088-0.749,0.766-1.285,1.515-1.198l0.294,0.034c0.749,0.088,1.285,0.766,1.197,1.515l-0.559,4.776
								C170.813,174.932,170.135,175.468,169.386,175.381z"/>
							<path style="fill:#243340;" d="M116.732,176.452l-0.293,0.043c-0.746,0.109-1.44-0.408-1.548-1.154l-0.694-4.758
								c-0.109-0.746,0.408-1.44,1.154-1.548l0.293-0.043c0.746-0.109,1.44,0.408,1.548,1.154l0.694,4.758
								C117.995,175.65,117.478,176.344,116.732,176.452z"/>
							<path style="fill:#243340;" d="M61.289,192.178l-0.275,0.11c-0.7,0.28-1.495-0.061-1.775-0.762l-1.783-4.466
								c-0.28-0.701,0.062-1.495,0.762-1.775l0.275-0.11c0.701-0.28,1.495,0.062,1.775,0.762l1.783,4.466
								C62.33,191.103,61.989,191.898,61.289,192.178z"/>
							<g>
								<g>
									<path style="fill:#243340;" d="M214.929,186.793c-2.102-2.424-1.841-6.093,0.583-8.195
										c2.424-2.102,6.094-1.841,8.196,0.583c2.102,2.424,1.841,6.093-0.583,8.195C220.7,189.479,217.031,189.217,214.929,186.793
										z"/>
									<path style="fill:#FFFFFF;" d="M217.688,184.401c-0.781-0.9-0.684-2.263,0.217-3.044c0.9-0.781,2.263-0.684,3.044,0.217
										c0.781,0.9,0.684,2.263-0.217,3.044C219.831,185.398,218.469,185.301,217.688,184.401z"/>
								</g>
								
									<line style="fill:none;stroke:#243340;stroke-width:1.9919;stroke-miterlimit:10;" x1="219.292" y1="178.396" x2="219.55" y2="174.767"/>
								
									<line style="fill:none;stroke:#243340;stroke-width:1.9919;stroke-linecap:round;stroke-linejoin:round;stroke-miterlimit:10;" x1="217.301" y1="174.136" x2="221.711" y2="174.45"/>
							</g>
						</g>
						<g>
							<path style="fill:#C78E7B;" d="M190.049,180.793c0.082,0.289,0.255,0.788,0.465,1.119c0.212,0.36,0.476,0.656,0.767,0.883
								c0.294,0.225,0.598,0.404,0.957,0.505c0.339,0.124,0.735,0.163,1.128,0.199l0.016,0.002c1.131,0.102,1.965,1.102,1.862,2.233
								c-0.103,1.131-1.102,1.965-2.233,1.862c-0.147-0.013-0.3-0.046-0.436-0.088c-0.709-0.225-1.414-0.494-2.069-0.923
								c-0.661-0.398-1.248-0.954-1.715-1.563c-0.469-0.613-0.812-1.295-1.024-1.987c-0.213-0.719-0.318-1.335-0.313-2.177
								c0.005-0.709,0.584-1.28,1.293-1.275c0.583,0.004,1.073,0.396,1.225,0.93L190.049,180.793z"/>
						</g>
						<g>
							<g>
								<path style="fill:#FFBFAA;" d="M169.666,258.265c7.798,1.416,20.821-1.389,37.188-12.821
									c9.497-5.748,15.298-18.743,24.759-42.75c1.282-3.873-2.411-6.069-4.164-2.391c-18.035,37.842-37.432,42.601-51.49,43.129
									c-2.345,0.156-4.268,0.456-5.912,0.834C169.633,248.928,169.474,253.601,169.666,258.265z"/>
								<g>
									<path style="fill:#FFB69E;" d="M227.063,190.792c-0.785,1.171-0.933,2.042-1.192,2.762
										c-0.312,0.867,0.012,5.346,0.834,6.457c1.372,1.855,4.237,3.363,6.513,2.315c1.067-0.491,1.825-1.502,2.262-2.593
										c0.649-1.622,0.721-3.439,1.085-5.136c0.067-0.313-0.067-0.635-0.336-0.807l-6.979-4.467
										C228.212,189.87,227.905,190.001,227.063,190.792z"/>
									<g>
										<path style="fill:#FFB69E;" d="M226.615,194.075c-0.082,0.342-0.159,0.798-0.134,1.146
											c0.016,0.361,0.126,0.658,0.273,0.79c0.146,0.14,0.282,0.109,0.461,0.108l0.678-0.009c1.406-0.018,2.56,1.107,2.578,2.513
											c0.018,1.406-1.107,2.56-2.513,2.578c-0.551,0.007-1.062-0.161-1.483-0.453l-0.364-0.252
											c-0.312-0.217-0.604-0.41-0.897-0.659c-0.299-0.283-0.58-0.523-0.837-0.893c-0.522-0.657-0.866-1.584-0.854-2.398
											c-0.007-0.818,0.229-1.499,0.52-2.056c0.307-0.57,0.637-0.997,1.085-1.457c0.35-0.359,0.925-0.366,1.284-0.016
											c0.237,0.231,0.32,0.56,0.249,0.86L226.615,194.075z"/>
									</g>
									<g>
										<path style="fill:#FFB69E;" d="M233.484,195.33c0.026-0.334,0.07-0.588,0.137-0.904c0.089-0.32,0.114-0.608,0.451-1.152
											c0.05-0.072,0.103-0.141,0.159-0.206c0.092-0.093,0.199-0.181,0.312-0.254c0.185-0.147,0.595-0.231,0.856-0.204
											c0.199,0.031,0.475,0.125,0.58,0.203c0.107,0.074,0.21,0.155,0.307,0.239c0.275,0.291,0.417,0.547,0.558,0.794
											c0.248,0.437,0.095,0.992-0.341,1.24c-0.348,0.198-0.772,0.141-1.055-0.112l-0.079-0.071
											c-0.146-0.13-0.296-0.248-0.378-0.271c-0.002,0.018,0.003,0.032,0.012,0.04c0.006,0.013,0.157,0.099,0.245,0.09
											c0.153,0.051,0.422-0.05,0.525-0.105c0.067-0.035,0.128-0.086,0.174-0.142c0.024-0.015,0.046-0.034,0.065-0.055
											c0.103-0.13,0.063,0.066,0.099,0.212c0.021,0.156,0.056,0.376,0.1,0.516c0.229,0.74-0.184,1.525-0.924,1.755
											c-0.74,0.229-1.525-0.184-1.755-0.924c-0.054-0.173-0.072-0.348-0.06-0.519L233.484,195.33z"/>
									</g>
									<g>
										<path style="fill:#FFB69E;" d="M231.273,192.687c0.324-0.356,0.604-0.621,1.001-0.925c0.21-0.148,0.42-0.301,0.777-0.447
											c0.275-0.143,1.124-0.301,1.721,0.23c0.475,0.484,0.491,0.844,0.556,1.135c0.018,0.253,0.041,0.527,0.012,0.724
											c-0.023,0.443-0.108,0.815-0.176,1.203c-0.085,0.493-0.555,0.824-1.048,0.739c-0.428-0.074-0.733-0.436-0.751-0.853
											l-0.004-0.09c-0.015-0.327-0.012-0.669-0.063-0.944c-0.01-0.162-0.059-0.242-0.083-0.346
											c-0.018-0.055-0.109-0.049,0.105,0.178c0.305,0.314,0.751,0.176,0.709,0.201c0.03,0.003-0.045,0.074-0.111,0.154
											c-0.141,0.171-0.335,0.45-0.449,0.661c-0.361,0.669-1.197,0.919-1.867,0.557c-0.669-0.362-0.919-1.197-0.557-1.867
											c0.053-0.098,0.116-0.187,0.187-0.266L231.273,192.687z"/>
									</g>
									<g>
										<path style="fill:#FFB69E;" d="M228.102,192.998c0.19-0.374,0.372-0.684,0.581-1.019c0.205-0.328,0.435-0.656,0.712-0.991
											c0.133-0.164,0.306-0.343,0.495-0.515c0.114-0.094,0.247-0.189,0.373-0.274c0.186-0.096,0.367-0.19,0.621-0.234
											c0.302-0.035,0.61-0.018,0.853,0.126c0.124,0.062,0.258,0.144,0.344,0.221c0.063,0.069,0.123,0.141,0.181,0.214
											c0.057,0.074,0.111,0.15,0.161,0.226c0.034,0.066,0.053,0.121,0.08,0.183l0.137,0.36c0.174,0.457-0.055,0.968-0.512,1.142
											c-0.371,0.141-0.778,0.017-1.011-0.28l-0.177-0.226l-0.086-0.11c-0.012-0.016-0.026-0.042-0.035-0.05
											c-0.006,0.01-0.008,0.019-0.007,0.027s0.006,0.013,0.013,0.015c0.018,0.026,0.068,0.077,0.116,0.098
											c0.096,0.029,0.222,0.092,0.352,0.058c0.088-0.01,0.115-0.006,0.148-0.028c-0.006,0.027-0.011,0.04-0.025,0.061
											c-0.046,0.083-0.099,0.168-0.159,0.293c-0.116,0.236-0.234,0.512-0.336,0.806c-0.101,0.286-0.204,0.609-0.271,0.88
											c-0.182,0.737-0.928,1.187-1.665,1.005c-0.737-0.182-1.187-0.927-1.005-1.665c0.025-0.101,0.061-0.197,0.105-0.286
											L228.102,192.998z"/>
									</g>
									<g>
										<path style="fill:#FFB69E;" d="M226.514,192.004c0.165-0.398,0.328-0.735,0.512-1.096c0.18-0.355,0.383-0.708,0.611-1.065
											c0.236-0.355,0.479-0.717,0.94-1.112l0.183-0.143c0.083-0.052,0.181-0.104,0.274-0.148
											c0.156-0.093,0.448-0.158,0.734-0.152c0.265,0.004,0.544,0.136,0.751,0.262c0.143,0.125,0.278,0.265,0.396,0.409
											c0.31,0.394,0.241,0.965-0.153,1.274c-0.394,0.309-0.965,0.241-1.274-0.154c-0.015,0.018-0.012,0.033-0.001,0.032
											c0.042,0.067,0.151,0.089,0.238,0.105c0.104,0.027,0.211-0.031,0.215-0.008c0.014,0.001,0.031-0.01,0.036-0.013
											l-0.018,0.043c-0.064,0.112-0.211,0.381-0.313,0.669c-0.108,0.291-0.21,0.601-0.296,0.926
											c-0.085,0.317-0.17,0.666-0.224,0.964c-0.136,0.746-0.851,1.241-1.597,1.106c-0.746-0.136-1.241-0.851-1.106-1.597
											c0.018-0.096,0.044-0.188,0.08-0.275L226.514,192.004z"/>
									</g>
								</g>
							</g>
							<path style="fill:#243340;" d="M163.216,255.967c1.698,3.547,5.255,6.135,9.17,5.759c9.477-0.909,27.27-4.576,40.91-18.904
								c19.516-20.5,24.282-40.021,19.924-40.497c-4.358-0.476-8.857-1.935-10.037,1.009c-1.18,2.944-7.099,18.271-20.325,26.292
								c-13.226,8.02-29.618,5.353-36.83,10.182C161.856,242.601,160.002,249.253,163.216,255.967z"/>
						</g>
						<g>
							<ellipse style="fill:#243340;" cx="171.639" cy="218.314" rx="1.665" ry="1.476"/>
							<path style="fill:#FFA182;" d="M179.836,219.79l4.134,1.61l2.748,8.985c0.546,2.037,0.7,4.527-0.417,6.493l-2.815-1.156
								c-1.488,0.099-2.88-2.865-3.073-4.933L179.836,219.79z"/>
							<g>
								<path style="fill:#FFBFAA;" d="M190.719,211.524c-1.954-6.041-4.962-7.397-8.223-7.78
									c-1.863,3.794-4.652,7.184-6.909,10.736c-0.405,0.637-0.883,1.188-1.413,1.652c1.107,1.73,2.833,3.801,4.257,5.4
									c2.021,2.269,3.306,3.997,6.34,4.671c2.374,0.436,6.499,0.39,6.826-1.183C192.695,222.28,192.032,215.585,190.719,211.524z"
									/>
								<path style="fill:#476196;" d="M181.812,216.652c-0.302-1.921-0.987-3.909-1.843-5.01c0,0,4.186,0.048,7.411-2.015
									c-4.803-1.615-8.232-2.797-12.936-4.685c-1.216,1.42-3.639,2.976-4.061,6.044c-0.005,8.363,6.396,13.108,8.984,11.605
									C179.11,220.705,181.861,219.008,181.812,216.652z"/>
								<path style="fill:#FFBFAA;" d="M180.747,216.265c1.313,1.314,1.491,3.265,0.397,4.359s-3.046,0.917-4.359-0.397
									c-1.314-1.313-1.491-3.265-0.397-4.359C177.482,214.774,179.434,214.952,180.747,216.265z"/>
							</g>
							<g>
								<path style="fill:#243340;" d="M191.305,213.126c0,0-0.988-7.869-7.39-10.218c-7.985-2.929-17.677,4.795-12.09,15.329
									C171.825,218.237,180.829,218.52,191.305,213.126z"/>
								<path style="fill:#FFFFFF;" d="M188.28,213.354c0,0-1.849-1.157-3.795,1.366C184.485,214.72,187.218,214.635,188.28,213.354
									z"/>
							</g>
							<path style="fill:#243340;" d="M171.26,218.197c0,0,0.571-3.553-7.881-5.479C163.379,212.719,165.321,219.656,171.26,218.197
								z"/>
							<path style="fill:#243340;" d="M171.26,218.197c0,0-3.579-0.379-5.048,8.164C166.212,226.361,173.036,224.05,171.26,218.197z
								"/>
						</g>
						<g>
							
								<path style="fill:none;stroke:#C78E7B;stroke-width:3;stroke-linecap:round;stroke-linejoin:round;stroke-miterlimit:10;" d="
								M197.399,182.406c-0.021-0.087,0.213-2.033-0.259-3.576"/>
							
								<path style="fill:none;stroke:#C78E7B;stroke-width:3;stroke-linecap:round;stroke-linejoin:round;stroke-miterlimit:10;" d="
								M195.443,181.988c-0.021-0.087,0.213-2.033-0.26-3.576"/>
							
								<path style="fill:none;stroke:#C78E7B;stroke-width:3;stroke-linecap:round;stroke-linejoin:round;stroke-miterlimit:10;" d="
								M193.488,181.571c-0.021-0.087,0.213-2.033-0.259-3.576"/>
							
								<path style="fill:none;stroke:#C78E7B;stroke-width:3;stroke-linecap:round;stroke-linejoin:round;stroke-miterlimit:10;" d="
								M191.532,181.153c-0.021-0.087,0.213-2.033-0.259-3.576"/>
						</g>
					</g>
					<g>
						<path style="fill:none;stroke:#243340;stroke-miterlimit:10;" d="M215.586,182.987c0,0-19.958-9.156-45.909-11.368
							c-25.951-2.212-37.103-1.317-53.636,1.124c-30.029,4.434-56.288,15.988-56.288,15.988s28.883-118.897,202.285-73.319"/>
					</g>
					<path style="fill:#5B688C;" d="M263.823,112.048c1.858,0.985,2.565,3.29,1.579,5.147c-0.985,1.858-3.29,2.565-5.148,1.579
						c-1.857-0.985-2.565-3.29-1.579-5.148C259.66,111.77,261.965,111.063,263.823,112.048z"/>
				</g>
			</g>
		</g>
	</g>
</g>
</svg>
